HIERARCHY
ROOT Hips
{
  OFFSET 55.5121 94.0392 24.1989
  CHANNELS 6 Xposition Yposition Zposition Zrotation Xrotation Yrotation
  JOINT spine
  {
    OFFSET 0 7.4756 0.429885
    CHANNELS 3 Zrotation Xrotation Yrotation
    JOINT spine1
    {
      OFFSET 0 9.92301 0
      CHANNELS 3 Zrotation Xrotation Yrotation
      JOINT spine2
      {
        OFFSET 0 9.50804 0
        CHANNELS 3 Zrotation Xrotation Yrotation
        JOINT Neck
        {
          OFFSET 0 24.4111 1.16384
          CHANNELS 3 Zrotation Xrotation Yrotation
          JOINT Head
          {
            OFFSET 0 7.37523 0
            CHANNELS 3 Zrotation Xrotation Yrotation
            End Site
            {
              OFFSET 0 17.8522 -5.88741
            }
          }
        }
        JOINT RightShoulder
        {
          OFFSET -4.00356 10.2679 -0.557468
          CHANNELS 3 Zrotation Xrotation Yrotation
          JOINT RightArm
          {
            OFFSET 0 13.4673 0
            CHANNELS 3 Zrotation Xrotation Yrotation
            JOINT RightArmRoll
            {
              OFFSET 0 6.79858 0
              CHANNELS 3 Zrotation Xrotation Yrotation
              JOINT RightForeArm
              {
                OFFSET 0 19.8018 0
                CHANNELS 3 Zrotation Xrotation Yrotation
                JOINT RightForeArmRoll
                {
                  OFFSET 0 7.62905 0
                  CHANNELS 3 Zrotation Xrotation Yrotation
                  JOINT RightHand
                  {
                    OFFSET 0 15.3098 0
                    CHANNELS 3 Zrotation Xrotation Yrotation
                    End Site
                    {
                      OFFSET 0 0 0
                    }
                  }
                }
              }
            }
          }
        }
        JOINT LeftShoulder
        {
          OFFSET 4.00356 10.2679 -0.557468
          CHANNELS 3 Zrotation Xrotation Yrotation
          JOINT LeftArm
          {
            OFFSET 0 13.4673 0
            CHANNELS 3 Zrotation Xrotation Yrotation
            JOINT LeftArmRoll
            {
              OFFSET 0 6.79858 0
              CHANNELS 3 Zrotation Xrotation Yrotation
              JOINT LeftForeArm
              {
                OFFSET 0 19.8018 0
                CHANNELS 3 Zrotation Xrotation Yrotation
                JOINT LeftForeArmRoll
                {
                  OFFSET 0 7.62905 0
                  CHANNELS 3 Zrotation Xrotation Yrotation
                  JOINT LeftHand
                  {
                    OFFSET 0 15.3098 0
                    CHANNELS 3 Zrotation Xrotation Yrotation
                    End Site
                    {
                      OFFSET 0 0 0
                    }
                  }
                }
              }
            }
          }
        }
      }
    }
  }
  JOINT RightUpLeg
  {
    OFFSET -6.62609 -1.21505 -1.01927
    CHANNELS 3 Zrotation Xrotation Yrotation
    JOINT RightUpLegRoll
    {
      OFFSET 0 17.9517 0
      CHANNELS 3 Zrotation Xrotation Yrotation
      JOINT RightLeg
      {
        OFFSET 0 -22.2304 0
        CHANNELS 3 Zrotation Xrotation Yrotation
        JOINT RightLegRoll
        {
          OFFSET 0 22.3032 0
          CHANNELS 3 Zrotation Xrotation Yrotation
          JOINT RightFoot
          {
            OFFSET 0 18.5636 0
            CHANNELS 3 Zrotation Xrotation Yrotation
            JOINT RightToeBase
            {
              OFFSET 0 15.5183 0
              CHANNELS 3 Zrotation Xrotation Yrotation
              End Site
              {
                OFFSET 0.00657761 7.51538 -0.866263
              }
            }
          }
        }
      }
    }
  }
  JOINT LeftUpLeg
  {
    OFFSET 6.62609 -1.21505 -1.01927
    CHANNELS 3 Zrotation Xrotation Yrotation
    JOINT LeftUpLegRoll
    {
      OFFSET 0 17.9518 0
      CHANNELS 3 Zrotation Xrotation Yrotation
      JOINT LeftLeg
      {
        OFFSET 0 22.2303 0
        CHANNELS 3 Zrotation Xrotation Yrotation
        JOINT LeftLegRoll
        {
          OFFSET 0 22.5093 0
          CHANNELS 3 Zrotation Xrotation Yrotation
          JOINT LeftFoot
          {
            OFFSET 0 18.3575 0
            CHANNELS 3 Zrotation Xrotation Yrotation
            JOINT LeftToeBase
            {
              OFFSET 0 15.5183 0
              CHANNELS 3 Zrotation Xrotation Yrotation
              End Site
              {
                OFFSET -0.029478 7.51538 -0.866263
              }
            }
          }
        }
      }
    }
  }
}
MOTION
Frames: 6
Frame Time: 0.00208333
52.4047 57.8126 -15.8825 2.23697 -25.1138 5.52063 0.89754 2.98698 -0.0365274 1.81118 9.97434 -0.23812 1.82171 11.619 -0.269999 -20.0129 8.49175 -0.647551 16.2557 2.43307 -3.99739 55.2068 -6.51599 -3.86915 116.356 21.6876 14.0082 -7.88027e-008 3.279e-007 -9.93793e-007 4.43745 4.13922 -1.42812 2.37241e-006 7.10583e-006 -3.00701 8.02962 -4.95143 0.697654 -83.1055 -0.197637 2.79909 -93.6584 23.3602 -22.4194 2.44073e-006 1.50515e-006 -2.52269e-006 -1.04408 2.87061 0.885459 -5.01597e-006 -4.52536e-006 3.00919 -8.03016 -4.95141 -0.697632 -178.397 58.9804 12.4625 180 1.52421e-005 177.317 -52.8211 81.9644 53.2646 -2.90724e-006 -8.30022e-006 2.82125 -21.9201 65.5007 17.3972 9.12567 32.2201 -7.31721 -173.916 60.4278 -15.7077 4.57705e-006 1.05463e-005 -2.35276 120.923 -83.3652 119.929 -2.32998e-006 -5.42651e-006 -2.32693 17.4556 59.7656 -13.974 -9.42771 36.4016 5.97171 
52.3928 57.8232 -15.8781 2.21488 -25.1612 5.48235 0.897181 3.00248 -0.0487888 1.81161 10.0052 -0.262959 1.82234 11.6498 -0.294883 -20.0751 8.45689 -0.604104 16.3017 2.43727 -3.95868 55.1605 -6.48026 -3.84272 116.44 21.7943 13.9591 -7.88026e-008 3.279e-007 -9.93793e-007 4.41951 4.09995 -1.42565 2.37241e-006 7.10583e-006 -3.00701 8.02962 -4.95143 0.697654 -83.0914 -0.247525 2.81537 -93.6756 23.4063 -22.3221 2.44073e-006 1.50515e-006 -2.52269e-006 -1.11021 2.91244 0.889858 -5.01597e-006 -4.52536e-006 3.00919 -8.03016 -4.95141 -0.697632 -178.331 58.9295 12.4099 180 1.52421e-005 177.317 -52.8869 81.9859 53.3247 -2.90724e-006 -8.30022e-006 2.81603 -21.8827 65.4796 17.3821 9.12776 32.2024 -7.3509 -173.844 60.3699 -15.7537 4.57705e-006 1.05463e-005 -2.35079 120.88 -83.3679 119.887 -2.32998e-006 -5.42651e-006 -2.32706 17.449 59.7695 -13.9769 -9.42697 36.4021 5.97061 
52.3828 57.8333 -15.8748 2.19331 -25.209 5.44387 0.896786 3.01819 -0.0611121 1.81198 10.0364 -0.287919 1.82291 11.681 -0.319886 -20.1385 8.41824 -0.560958 16.3482 2.4443 -3.92033 55.1109 -6.44551 -3.81678 116.527 21.9025 13.9068 -7.88027e-008 3.279e-007 -9.93793e-007 4.4022 4.05978 -1.42307 2.37241e-006 7.10583e-006 -3.00701 8.02962 -4.95143 0.697654 -83.0786 -0.297477 2.8318 -93.691 23.4513 -22.2235 2.44073e-006 1.50515e-006 -2.52269e-006 -1.17842 2.95621 0.894413 -5.01597e-006 -4.52536e-006 3.00919 -8.03016 -4.95141 -0.697632 -178.265 58.8779 12.357 180 1.52421e-005 177.318 -52.9511 82.0071 53.3835 -2.90724e-006 -8.30022e-006 2.81085 -21.8468 65.4593 17.3676 9.12977 32.1846 -7.38426 -173.773 60.3109 -15.7986 4.57705e-006 1.05463e-005 -2.34898 120.84 -83.3707 119.846 -2.32998e-006 -5.42651e-006 -2.32731 17.4443 59.7745 -13.98 -9.42583 36.4039 5.96707 
52.3713 57.8384 -15.8819 2.17206 -25.2572 5.40523 0.896368 3.03404 -0.073479 1.8123 10.0679 -0.312964 1.82343 11.7125 -0.344975 -20.2028 8.37694 -0.518027 16.3949 2.45331 -3.88221 55.059 -6.41145 -3.79119 116.618 22.0116 13.8522 -7.88027e-008 3.279e-007 -9.93793e-007 4.38532 4.01897 -1.42042 2.37241e-006 7.10583e-006 -3.00701 8.02962 -4.95143 0.697654 -83.0668 -0.347474 2.84831 -93.7053 23.4956 -22.124 2.44073e-006 1.50515e-006 -2.52269e-006 -1.24807 3.00133 0.899077 -5.01597e-006 -4.52536e-006 3.00919 -8.03016 -4.95141 -0.697632 -178.199 58.8259 12.3038 180 1.52421e-005 177.319 -53.0142 82.0279 53.4414 -2.90724e-006 -8.30022e-006 2.8057 -21.8118 65.4396 17.3535 9.13172 32.1667 -7.41737 -173.704 60.2511 -15.8427 4.57705e-006 1.05463e-005 -2.34728 120.801 -83.3735 119.807 -2.32998e-006 -5.42651e-006 -2.32765 17.4411 59.7803 -13.9833 -9.42441 36.4066 5.96184 
52.3608 57.854 -15.8784 2.15098 -25.3055 5.36649 0.89594 3.04998 -0.0858708 1.8126 10.0996 -0.338062 1.82394 11.7442 -0.370115 -20.2676 8.33411 -0.475224 16.4419 2.46346 -3.84422 55.0058 -6.37778 -3.76579 116.711 22.1212 13.7964 -7.88026e-008 3.279e-007 -9.93793e-007 4.36869 3.97781 -1.41772 2.37241e-006 7.10583e-006 -3.00701 8.02962 -4.95143 0.697654 -83.0556 -0.397495 2.86489 -93.7189 23.5395 -22.0239 2.44073e-006 1.50515e-006 -2.52269e-006 -1.31856 3.04723 0.903805 -5.01597e-006 -4.52536e-006 3.00919 -8.03016 -4.95141 -0.697632 -178.133 58.7735 12.2506 180 1.52421e-005 177.319 -53.0769 82.0486 53.4989 -2.90724e-006 -8.30022e-006 2.80057 -21.7774 65.4203 17.3396 9.13362 32.1488 -7.45034 -173.635 60.1909 -15.8863 4.57705e-006 1.05463e-005 -2.34565 120.762 -83.3764 119.769 -2.32998e-006 -5.42651e-006 -2.32805 17.4387 59.7866 -13.9867 -9.42283 36.4098 5.95563 
52.3605 57.8599 -15.8821 2.12987 -25.3539 5.3277 0.895516 3.06593 -0.0982691 1.81293 10.1313 -0.363176 1.82446 11.7759 -0.395272 -20.3325 8.2909 -0.43246 16.4888 2.47388 -3.80627 54.9522 -6.3442 -3.74045 116.805 22.231 13.7401 -7.88026e-008 3.279e-007 -9.93793e-007 4.35212 3.93655 -1.41502 2.37241e-006 7.10583e-006 -3.00701 8.02962 -4.95143 0.697654 -83.0444 -0.447521 2.88148 -93.7324 23.5833 -21.9236 2.44073e-006 1.50515e-006 -2.52269e-006 -1.38927 3.09332 0.908549 -5.01597e-006 -4.52536e-006 3.00919 -8.03016 -4.95141 -0.697632 -178.067 58.721 12.1975 180 1.52421e-005 177.32 -53.1396 82.0692 53.5566 -2.90724e-006 -8.30022e-006 2.79544 -21.7431 65.401 17.3259 9.1355 32.1309 -7.48327 -173.566 60.1306 -15.9297 4.57705e-006 1.05463e-005 -2.34403 120.724 -83.3792 119.731 -2.32998e-006 -5.42651e-006 -2.32845 17.4366 59.7929 -13.9901 -9.4212 36.4131 5.94917 
